# xmcd CD database file generated by Grip 3.0.7
# 
# Track frame offsets:
#       150
#       10106
#       20833
#       33467
#       42658
#       52625
#       64911
#       76783
#       89016
#       98753
#       110552
#       121890
#       131699
#       139918
#       150024
#       161768
#       170923
#       180396
#       190272
#       201860
#       211219
#       221113
#       231398
#       244747
#       253591
#       262343
#       270310
#       281027
#       293521
# 
# Disc length: 4146 seconds
# 
# Revision: 1
# Processed by: cddbd v1.5PL3 Copyright (c) Steve Scherf et al.
# Submitted via: Grip 3.0.7
# 
DISCID=aa10301d
DTITLE=Johnny Cash - The Essential Johnny Cash  1955-1983 [CD1]
DYEAR=1992
DGENRE=Country
TTITLE0=Hey Porter
TTITLE1=Cry, Cry, Cry
TTITLE2=Folsom Prison Blues
TTITLE3=Luther Played The Boogie
TTITLE4=Get Rhythm
TTITLE5=I Walk The Line
TTITLE6=Home Of The Blues
TTITLE7=Give My Love To Rose
TTITLE8=Rock Island Line
TTITLE9=Doin' My Time
TTITLE10=Big River
TTITLE11=Ballad Of A Teenage Queen
TTITLE12=Guess Things Happen That Way
TTITLE13=The Ways Of A Woman In Love
TTITLE14=Thanks A Lot
TTITLE15=Oh, What A Dream
TTITLE16=What Do I Care
TTITLE17=All Over Again
TTITLE18=I Still Miss Someone
TTITLE19=I'd Just Be Fool Enough (To Fall)
TTITLE20=Walking The Blues
TTITLE21=Frankie's Man, Johnny
TTITLE22=Tennessee Flat-Top Box
TTITLE23=Sing It Pretty, Sue
TTITLE24=Pickin' Time
TTITLE25=Five Feet High And Rising
TTITLE26=The Old Account
TTITLE27=(There'll Be) Peace In The Valley (For Me)
TTITLE28=Were You There (When They Crucified My Lord)
EXTD=
EXTT0=
EXTT1=
EXTT2=
EXTT3=
EXTT4=
EXTT5=
EXTT6=
EXTT7=
EXTT8=
EXTT9=
EXTT10=
EXTT11=
EXTT12=
EXTT13=
EXTT14=
EXTT15=
EXTT16=
EXTT17=
EXTT18=
EXTT19=
EXTT20=
EXTT21=
EXTT22=
EXTT23=
EXTT24=
EXTT25=
EXTT26=
EXTT27=
EXTT28=
PLAYORDER=
